<?xml version="1.0" encoding="iso-8859-1"?>
<!-- Uploaded to: SVG Repo, www.svgrepo.com, Generator: SVG Repo Mixer Tools -->
<svg version="1.1" id="Layer_1" xmlns="http://www.w3.org/2000/svg" xmlns:xlink="http://www.w3.org/1999/xlink" 
	 viewBox="0 0 512 512" xml:space="preserve">
<g transform="translate(1 1)">
	<g>
		<rect x="18.692" y="43.308" style="fill:#E2E3E5;" width="492.308" height="19.692"/>
		<rect x="18.692" y="181.154" style="fill:#E2E3E5;" width="492.308" height="19.692"/>
		<rect x="18.692" y="319" style="fill:#E2E3E5;" width="492.308" height="19.692"/>
		<rect x="18.692" y="456.846" style="fill:#E2E3E5;" width="492.308" height="19.692"/>
	</g>
	<g>
		<path style="fill:#B6B6B6;" d="M501.154,53.154H8.846C2.938,53.154-1,49.215-1,43.308s3.938-9.846,9.846-9.846h492.308
			c5.908,0,9.846,3.938,9.846,9.846S507.062,53.154,501.154,53.154z"/>
		<path style="fill:#B6B6B6;" d="M501.154,191H8.846C2.938,191-1,187.062-1,181.154s3.938-9.846,9.846-9.846h492.308
			c5.908,0,9.846,3.938,9.846,9.846S507.062,191,501.154,191z"/>
		<path style="fill:#B6B6B6;" d="M501.154,328.846H8.846C2.938,328.846-1,324.908-1,319c0-5.908,3.938-9.846,9.846-9.846h492.308
			c5.908,0,9.846,3.938,9.846,9.846C511,324.908,507.062,328.846,501.154,328.846z"/>
		<path style="fill:#B6B6B6;" d="M501.154,466.692H8.846c-5.908,0-9.846-3.938-9.846-9.846C-1,450.939,2.938,447,8.846,447h492.308
			c5.908,0,9.846,3.938,9.846,9.846C511,462.754,507.062,466.692,501.154,466.692z"/>
	</g>
</g>
</svg>